<?xml version="1.0" standalone="no"?>
<!DOCTYPE svg PUBLIC "-//W3C//DTD SVG 20010904//EN"
 "http://www.w3.org/TR/2001/REC-SVG-20010904/DTD/svg10.dtd">
<svg version="1.0" xmlns="http://www.w3.org/2000/svg"
 width="512.000000pt" height="512.000000pt" viewBox="0 0 512.000000 512.000000"
 preserveAspectRatio="xMidYMid meet">
<metadata>
Created by potrace 1.16, written by Peter Selinger 2001-2019
</metadata>
<g transform="translate(0.000000,512.000000) scale(0.100000,-0.100000)"
fill="#33691E" stroke="none">
<path d="M2230 5104 c-742 -95 -1409 -516 -1823 -1149 -210 -321 -344 -690
-392 -1075 -20 -162 -20 -478 0 -640 92 -744 509 -1411 1140 -1826 329 -216
695 -350 1085 -399 162 -20 478 -20 640 0 748 93 1416 512 1833 1150 210 321
344 690 392 1075 20 162 20 478 0 640 -92 744 -509 1411 -1140 1826 -329 216
-695 350 -1085 399 -153 19 -501 18 -650 -1z m394 -1284 c120 -31 209 -82 301
-175 73 -73 115 -129 104 -139 -2 -2 -89 -6 -193 -7 l-190 -4 -8 39 c-17 80
-86 136 -166 136 -95 0 -154 -51 -177 -153 l-6 -29 -187 7 c-103 4 -191 11
-196 15 -12 12 53 97 122 162 155 143 389 201 596 148z m-83 -249 c60 -60 27
-161 -56 -177 -43 -8 -89 19 -111 64 -20 42 -12 75 26 113 40 41 100 41 141 0z
m-416 -167 l200 -7 30 -28 c28 -26 103 -52 129 -44 6 2 23 6 38 9 15 4 42 19
60 35 l33 28 216 8 c120 4 225 8 235 8 45 4 71 -252 39 -378 -8 -33 -34 -98
-57 -145 -82 -169 -260 -307 -448 -346 -323 -68 -652 123 -757 440 -23 70 -27
98 -27 201 -1 88 4 136 17 179 l18 58 37 -6 c20 -3 127 -9 237 -12z m-162
-963 c100 -68 235 -121 361 -142 94 -15 276 -7 366 16 75 20 234 92 282 128
29 23 38 24 78 17 171 -32 349 -145 448 -284 l33 -46 -26 -10 c-39 -15 -67
-12 -119 11 -98 43 -218 19 -285 -56 -53 -60 -74 -119 -74 -200 0 -80 20 -143
94 -307 27 -60 49 -114 49 -119 0 -5 -380 -9 -935 -9 l-935 0 0 203 c0 236 11
302 69 421 89 182 243 316 431 375 36 11 76 22 90 24 14 2 26 5 28 6 2 0 22
-12 45 -28z m1420 -382 c62 -25 73 -24 183 8 84 24 96 25 138 13 48 -13 92
-50 107 -88 14 -36 11 -138 -6 -201 -8 -31 -41 -130 -74 -221 -32 -91 -65
-194 -72 -229 l-12 -65 -27 33 c-15 17 -35 59 -45 92 -24 80 -54 109 -112 109
-60 0 -89 -32 -132 -146 -37 -97 -38 -97 -61 6 -7 30 -44 127 -82 215 -89 202
-105 266 -89 340 16 73 75 140 134 154 49 11 83 6 150 -20z"/>
</g>
</svg>
